# xmcd CD database file
#
# Track frame offsets:
#	150
#	16289
#	36622
#	55643
#	76113
#	95004
#	116365
#	125808
#	154979
#	180019
#	207608
#
# Disc length: 3373 seconds
#
# Revision: 0
# Processed by: cddbd v1.5PL3 Copyright (c) Steve Scherf et al.
# Submitted via: CDex 1.51
#
DISCID=8d0d2b0b
DTITLE=Sunset Pyramid - James Harry (Llewellyn)
DYEAR=1996
DGENRE=New Age
TTITLE0=Sunset Pyramid
TTITLE1=Early Dawn
TTITLE2=Across the Seas
TTITLE3=Places of Wonder
TTITLE4=Evening Sunset
TTITLE5=When the World is Asleep
TTITLE6=Rising Mists
TTITLE7=New Beginings
TTITLE8=From a Mountain
TTITLE9=To Faraway
TTITLE10=Journey Home
EXTD=YEAR: 1996
EXTT0=
EXTT1=
EXTT2=
EXTT3=
EXTT4=
EXTT5=
EXTT6=
EXTT7=
EXTT8=
EXTT9=
EXTT10=
PLAYORDER=
